<svg width="602" height="52" viewBox="0 0 602 52" fill="none" xmlns="http://www.w3.org/2000/svg">
<path d="M581 1H21C9.95431 1 1 9.9543 1 21V31C1 42.0457 9.95432 51 21 51H581C592.046 51 601 42.0457 601 31V21C601 9.95431 592.046 1 581 1Z" fill="black"/>
<path d="M581 1H21C9.95431 1 1 9.9543 1 21V31C1 42.0457 9.95432 51 21 51H581C592.046 51 601 42.0457 601 31V21C601 9.95431 592.046 1 581 1Z" fill="white" fill-opacity="0.2"/>
<path d="M581 1H21C9.95431 1 1 9.9543 1 21V31C1 42.0457 9.95432 51 21 51H581C592.046 51 601 42.0457 601 31V21C601 9.95431 592.046 1 581 1Z" fill="black"/>
<path d="M581 1H21C9.95431 1 1 9.9543 1 21V31C1 42.0457 9.95432 51 21 51H581C592.046 51 601 42.0457 601 31V21C601 9.95431 592.046 1 581 1Z" stroke="black"/>
<path d="M141.904 34V16.9375H147.154C148.654 16.9375 149.994 17.2773 151.173 17.957C152.361 18.6289 153.287 19.5898 153.951 20.8398C154.615 22.082 154.947 23.4961 154.947 25.082V25.8672C154.947 27.4531 154.619 28.8633 153.962 30.0977C153.314 31.332 152.396 32.2891 151.209 32.9688C150.021 33.6484 148.681 33.9922 147.189 34H141.904ZM145.419 19.7852V31.1758H147.119C148.494 31.1758 149.544 30.7266 150.271 29.8281C150.998 28.9297 151.369 27.6445 151.384 25.9727V25.0703C151.384 23.3359 151.025 22.0234 150.306 21.1328C149.587 20.2344 148.537 19.7852 147.154 19.7852H145.419ZM167.779 26.6055H161.029V31.1758H168.951V34H157.513V16.9375H168.927V19.7852H161.029V23.8516H167.779V26.6055ZM184.091 19.7852H178.865V34H175.349V19.7852H170.193V16.9375H184.091V19.7852ZM196.373 26.6055H189.623V31.1758H197.544V34H186.107V16.9375H197.521V19.7852H189.623V23.8516H196.373V26.6055ZM205.923 27.7539H203.123V34H199.607V16.9375H205.947C207.962 16.9375 209.517 17.3867 210.611 18.2852C211.705 19.1836 212.252 20.4531 212.252 22.0938C212.252 23.2578 211.998 24.2305 211.49 25.0117C210.99 25.7852 210.228 26.4023 209.205 26.8633L212.896 33.8359V34H209.123L205.923 27.7539ZM203.123 24.9062H205.959C206.841 24.9062 207.525 24.6836 208.009 24.2383C208.494 23.7852 208.736 23.1641 208.736 22.375C208.736 21.5703 208.505 20.9375 208.044 20.4766C207.591 20.0156 206.892 19.7852 205.947 19.7852H203.123V24.9062ZM219.529 16.9375L223.912 29.3125L228.271 16.9375H232.888V34H229.361V29.3359L229.712 21.2852L225.107 34H222.693L218.099 21.2969L218.451 29.3359V34H214.935V16.9375H219.529ZM239.697 34H236.181V16.9375H239.697V34ZM256.841 34H253.326L246.482 22.7734V34H242.966V16.9375H246.482L253.337 28.1875V16.9375H256.841V34ZM269.755 30.4844H263.591L262.419 34H258.681L265.033 16.9375H268.291L274.677 34H270.939L269.755 30.4844ZM264.541 27.6367H268.806L266.662 21.25L264.541 27.6367ZM289.408 28.3164C289.275 30.1523 288.595 31.5977 287.369 32.6523C286.15 33.707 284.541 34.2344 282.541 34.2344C280.353 34.2344 278.63 33.5 277.373 32.0312C276.123 30.5547 275.498 28.5312 275.498 25.9609V24.918C275.498 23.2773 275.787 21.832 276.365 20.582C276.943 19.332 277.767 18.375 278.837 17.7109C279.916 17.0391 281.166 16.7031 282.587 16.7031C284.556 16.7031 286.142 17.2305 287.345 18.2852C288.548 19.3398 289.244 20.8203 289.431 22.7266H285.916C285.83 21.625 285.521 20.8281 284.99 20.3359C284.466 19.8359 283.666 19.5859 282.587 19.5859C281.416 19.5859 280.537 20.0078 279.951 20.8516C279.373 21.6875 279.076 22.9883 279.06 24.7539V26.043C279.06 27.8867 279.337 29.2344 279.892 30.0859C280.455 30.9375 281.337 31.3633 282.541 31.3633C283.627 31.3633 284.435 31.1172 284.966 30.625C285.505 30.125 285.814 29.3555 285.892 28.3164H289.408ZM295.455 34H291.939V16.9375H295.455V34ZM312.74 25.8555C312.74 27.5352 312.443 29.0078 311.849 30.2734C311.255 31.5391 310.404 32.5156 309.294 33.2031C308.193 33.8906 306.927 34.2344 305.498 34.2344C304.084 34.2344 302.822 33.8945 301.712 33.2148C300.603 32.5352 299.744 31.5664 299.134 30.3086C298.525 29.043 298.216 27.5898 298.209 25.9492V25.1055C298.209 23.4258 298.509 21.9492 299.111 20.6758C299.72 19.3945 300.576 18.4141 301.677 17.7344C302.787 17.0469 304.052 16.7031 305.474 16.7031C306.896 16.7031 308.158 17.0469 309.259 17.7344C310.369 18.4141 311.224 19.3945 311.826 20.6758C312.435 21.9492 312.74 23.4219 312.74 25.0938V25.8555ZM309.177 25.082C309.177 23.293 308.857 21.9336 308.216 21.0039C307.576 20.0742 306.662 19.6094 305.474 19.6094C304.294 19.6094 303.384 20.0703 302.744 20.9922C302.103 21.9062 301.779 23.25 301.771 25.0234V25.8555C301.771 27.5977 302.091 28.9492 302.732 29.9102C303.373 30.8711 304.294 31.3516 305.498 31.3516C306.677 31.3516 307.584 30.8906 308.216 29.9688C308.849 29.0391 309.169 27.6875 309.177 25.9141V25.082ZM329.169 34H325.654L318.81 22.7734V34H315.294V16.9375H318.81L325.666 28.1875V16.9375H329.169V34ZM338.216 34V16.9375H343.466C344.966 16.9375 346.306 17.2773 347.486 17.957C348.673 18.6289 349.599 19.5898 350.263 20.8398C350.927 22.082 351.259 23.4961 351.259 25.082V25.8672C351.259 27.4531 350.931 28.8633 350.275 30.0977C349.627 31.332 348.709 32.2891 347.521 32.9688C346.334 33.6484 344.994 33.9922 343.502 34H338.216ZM341.732 19.7852V31.1758H343.431C344.806 31.1758 345.857 30.7266 346.584 29.8281C347.31 28.9297 347.681 27.6445 347.697 25.9727V25.0703C347.697 23.3359 347.337 22.0234 346.619 21.1328C345.9 20.2344 344.849 19.7852 343.466 19.7852H341.732ZM364.091 26.6055H357.341V31.1758H365.263V34H353.826V16.9375H365.24V19.7852H357.341V23.8516H364.091V26.6055ZM385.443 19.7852H380.216V34H376.701V19.7852H371.544V16.9375H385.443V19.7852ZM395.685 30.4844H389.521L388.349 34H384.611L390.962 16.9375H394.22L400.607 34H396.869L395.685 30.4844ZM390.47 27.6367H394.736L392.591 21.25L390.47 27.6367ZM408.517 27.7539H405.716V34H402.201V16.9375H408.541C410.556 16.9375 412.111 17.3867 413.205 18.2852C414.298 19.1836 414.845 20.4531 414.845 22.0938C414.845 23.2578 414.591 24.2305 414.084 25.0117C413.584 25.7852 412.822 26.4023 411.798 26.8633L415.49 33.8359V34H411.716L408.517 27.7539ZM405.716 24.9062H408.552C409.435 24.9062 410.119 24.6836 410.603 24.2383C411.087 23.7852 411.33 23.1641 411.33 22.375C411.33 21.5703 411.099 20.9375 410.638 20.4766C410.185 20.0156 409.486 19.7852 408.541 19.7852H405.716V24.9062ZM427.794 26.6055H421.044V31.1758H428.966V34H417.529V16.9375H428.943V19.7852H421.044V23.8516H427.794V26.6055ZM440.662 30.4844H434.498L433.326 34H429.587L435.939 16.9375H439.197L445.584 34H441.845L440.662 30.4844ZM435.447 27.6367H439.712L437.568 21.25L435.447 27.6367ZM456.025 29.5234C456.025 28.8594 455.791 28.3516 455.322 28C454.853 27.6406 454.009 27.2656 452.791 26.875C451.572 26.4766 450.607 26.0859 449.896 25.7031C447.959 24.6562 446.99 23.2461 446.99 21.4727C446.99 20.5508 447.248 19.7305 447.763 19.0117C448.287 18.2852 449.033 17.7188 450.002 17.3125C450.978 16.9062 452.072 16.7031 453.283 16.7031C454.502 16.7031 455.587 16.9258 456.541 17.3711C457.494 17.8086 458.232 18.4297 458.755 19.2344C459.287 20.0391 459.552 20.9531 459.552 21.9766H456.037C456.037 21.1953 455.791 20.5898 455.298 20.1602C454.806 19.7227 454.115 19.5039 453.224 19.5039C452.365 19.5039 451.697 19.6875 451.22 20.0547C450.744 20.4141 450.505 20.8906 450.505 21.4844C450.505 22.0391 450.783 22.5039 451.337 22.8789C451.9 23.2539 452.724 23.6055 453.81 23.9336C455.81 24.5352 457.267 25.2812 458.181 26.1719C459.095 27.0625 459.552 28.1719 459.552 29.5C459.552 30.9766 458.994 32.1367 457.877 32.9805C456.759 33.8164 455.255 34.2344 453.365 34.2344C452.052 34.2344 450.857 33.9961 449.779 33.5195C448.701 33.0352 447.877 32.375 447.306 31.5391C446.744 30.7031 446.462 29.7344 446.462 28.6328H449.99C449.99 30.5156 451.115 31.457 453.365 31.457C454.201 31.457 454.853 31.2891 455.322 30.9531C455.791 30.6094 456.025 30.1328 456.025 29.5234Z" fill="#D8C51B"/>
</svg>
